# xmcd
#
# Track frame offsets:
#	150
#	13314
#	24722
#	43705
#	57913
#	76901
#	87865
#
# Disc length: 1437 seconds
# Revision: 0
# Processed by: cddbd v1.5.2PL0 Copyright (c) Steve Scherf et al.
# Submitted via: dBpowerAMP V12.0
#
DISCID=50059b07
DTITLE=Nu-Blu - Nail By Nail
DYEAR=2012
DGENRE=Country
TTITLE0=The Abyss
TTITLE1=Man From Galilee
TTITLE2=The Carpenter
TTITLE3=Martha And Mary
TTITLE4=You See Jesus
TTITLE5=Where Did You Get That Water
TTITLE6=Hammer
EXTD=
EXTT0=
EXTT1=
EXTT2=
EXTT3=
EXTT4=
EXTT5=
EXTT6=
PLAYORDER=
